<?xml version="1.0" encoding="UTF-8"?>
<svg viewBox="0 0 744.09447 1052.362179" xmlns="http://www.w3.org/2000/svg">
 <path transform="matrix(.83806 -.60441 0 1.0103 -25.117 -5.8226)" d="m447.18 1003.5h54.707a9.7809 7.184 0 0 1 9.7809 7.184v45.928a9.7809 7.184 0 0 1 -9.7809 7.184h-54.707a9.7809 7.184 0 0 1 -9.7809 -7.184v-45.928a9.7809 7.184 0 0 1 9.7809 -7.184" fill="#f41809"/>
 <path transform="matrix(.83806 -.60441 0 1.0103 -25.117 -5.8226)" d="m450.09 930.31h52.592a10.838 8.7044 0 0 1 10.838 8.7044v42.887a10.838 8.7044 0 0 1 -10.838 8.7044h-52.592a10.838 8.7044 0 0 1 -10.838 -8.7044v-42.887a10.838 8.7044 0 0 1 10.838 -8.7044" fill="#f41809"/>
 <path transform="matrix(.83806 -.60441 0 1.0103 -25.117 -5.8226)" d="m445.6 856.12h61.579a6.3449 13.045 0 0 1 6.3449 13.045v34.206a6.3449 13.045 0 0 1 -6.3449 13.045h-61.579a6.3449 13.045 0 0 1 -6.3449 -13.045v-34.206a6.3449 13.045 0 0 1 6.3449 -13.045" fill="#f41809"/>
 <path transform="matrix(.8405 -.60124 0 1.0103 -25.117 -5.8226)" d="m532.43 853.09h55.044a9.8083 11.283 0 0 1 9.8083 11.283v37.73a9.8083 11.283 0 0 1 -9.8083 11.283h-55.044a9.8083 11.283 0 0 1 -9.8083 -11.283v-37.73a9.8083 11.283 0 0 1 9.8083 -11.283" fill="#f41809"/>
 <path transform="matrix(.8405 -.60124 0 1.0103 -25.117 -5.8226)" d="m530.32 926.82h59.261a7.6998 13.475 0 0 1 7.6998 13.475v33.345a7.6998 13.475 0 0 1 -7.6998 13.475h-59.261a7.6998 13.475 0 0 1 -7.6998 -13.475v-33.345a7.6998 13.475 0 0 1 7.6998 -13.475" fill="#f41809"/>
 <path transform="matrix(.8405 -.60124 0 1.0103 -25.117 -5.8226)" d="m531.64 999.72h52.935a10.863 14.572 0 0 1 10.863 14.572v31.153a10.863 14.572 0 0 1 -10.863 14.572h-52.935a10.863 14.572 0 0 1 -10.863 -14.572v-31.153a10.863 14.572 0 0 1 10.863 -14.572" fill="#f41809"/>
 <path transform="matrix(.8405 -.60124 0 1.0103 -25.117 -5.8226)" d="m615.2 997.07h55.044a9.8083 11.316 0 0 1 9.8083 11.316v37.664a9.8083 11.316 0 0 1 -9.8083 11.316h-55.044a9.8083 11.316 0 0 1 -9.8083 -11.316v-37.664a9.8083 11.316 0 0 1 9.8083 -11.316" fill="#f41809"/>
 <path transform="matrix(.8405 -.60124 0 1.0103 -25.117 -5.8226)" d="m615.35 928.25h57.152a8.754 11.542 0 0 1 8.754 11.542v37.213a8.754 11.542 0 0 1 -8.754 11.542h-57.152a8.754 11.542 0 0 1 -8.754 -11.542v-37.213a8.754 11.542 0 0 1 8.754 -11.542" fill="#f41809"/>
 <path transform="matrix(.8405 -.60124 0 1.0103 -25.117 -5.8226)" d="m615.35 853.79h57.152a8.754 7.3822 0 0 1 8.754 7.3822v45.531a8.754 7.3822 0 0 1 -8.754 7.3822h-57.152a8.754 7.3822 0 0 1 -8.754 -7.3822v-45.531a8.754 7.3822 0 0 1 8.754 -7.3822" fill="#f41809"/>
 <path transform="matrix(.8587 .57675 0 1.0103 -25.117 -5.8226)" d="m350.21 504.68h54.122a9.1809 12.791 0 0 1 9.1809 12.791v34.713a9.1809 12.791 0 0 1 -9.1809 12.791h-54.122a9.1809 12.791 0 0 1 -9.1809 -12.791v-34.713a9.1809 12.791 0 0 1 9.1809 -12.791" fill="#00d"/>
 <path transform="matrix(.8587 .57675 0 1.0103 -25.117 -5.8226)" d="m351.43 429.31h54.122a9.1809 6.6983 0 0 1 9.1809 6.6983v46.899a9.1809 6.6983 0 0 1 -9.1809 6.6983h-54.122a9.1809 6.6983 0 0 1 -9.1809 -6.6983v-46.899a9.1809 6.6983 0 0 1 9.1809 -6.6983" fill="#00d"/>
 <path transform="matrix(.8587 .57675 0 1.0103 -25.117 -5.8226)" d="m351.43 357.98h54.122a9.1809 8.7044 0 0 1 9.1809 8.7044v42.887a9.1809 8.7044 0 0 1 -9.1809 8.7044h-54.122a9.1809 8.7044 0 0 1 -9.1809 -8.7044v-42.887a9.1809 8.7044 0 0 1 9.1809 -8.7044" fill="#00d"/>
 <path transform="matrix(.8587 .57675 0 1.0103 -25.117 -5.8226)" d="m268.61 504.59h54.122a9.1809 11.05 0 0 1 9.1809 11.05v38.195a9.1809 11.05 0 0 1 -9.1809 11.05h-54.122a9.1809 11.05 0 0 1 -9.1809 -11.05v-38.195a9.1809 11.05 0 0 1 9.1809 -11.05" fill="#00d"/>
 <path transform="matrix(.8587 .57675 0 1.0103 -25.117 -5.8226)" d="m268.61 431.59h54.122a9.1809 11.846 0 0 1 9.1809 11.846v36.604a9.1809 11.846 0 0 1 -9.1809 11.846h-54.122a9.1809 11.846 0 0 1 -9.1809 -11.846v-36.604a9.1809 11.846 0 0 1 9.1809 -11.846" fill="#00d"/>
 <path transform="matrix(.8587 .57675 0 1.0103 -25.117 -5.8226)" d="m269.2 360.92h54.122a9.1809 9.5 0 0 1 9.1809 9.5v41.296a9.1809 9.5 0 0 1 -9.1809 9.5h-54.122a9.1809 9.5 0 0 1 -9.1809 -9.5v-41.296a9.1809 9.5 0 0 1 9.1809 -9.5" fill="#00d"/>
 <path transform="matrix(.8587 .57675 0 1.0103 -25.117 -5.8226)" d="m185.16 504.9h54.122a9.1809 8.0991 0 0 1 9.1809 8.0991v44.098a9.1809 8.0991 0 0 1 -9.1809 8.0991h-54.122a9.1809 8.0991 0 0 1 -9.1809 -8.0991v-44.098a9.1809 8.0991 0 0 1 9.1809 -8.0991" fill="#00d"/>
 <path transform="matrix(.8587 .57675 0 1.0103 -25.117 -5.8226)" d="m186.38 434.2h54.122a9.1809 7.7591 0 0 1 9.1809 7.7591v44.778a9.1809 7.7591 0 0 1 -9.1809 7.7591h-54.122a9.1809 7.7591 0 0 1 -9.1809 -7.7591v-44.778a9.1809 7.7591 0 0 1 9.1809 -7.7591" fill="#00d"/>
 <path transform="matrix(.8587 .57675 0 1.0103 -25.117 -5.8226)" d="m186.38 362.2h54.122a9.1809 6.8696 0 0 1 9.1809 6.8696v46.557a9.1809 6.8696 0 0 1 -9.1809 6.8696h-54.122a9.1809 6.8696 0 0 1 -9.1809 -6.8696v-46.557a9.1809 6.8696 0 0 1 9.1809 -6.8696" fill="#00d"/>
 <path transform="matrix(1.0252 .65194 -.97583 .68589 316.58 -22.804)" d="m255.54 391.19h50.489a4.5145 9.2279 0 0 1 4.5145 9.2279v41.84a4.5145 9.2279 0 0 1 -4.5145 9.2279h-50.489a4.5145 9.2279 0 0 1 -4.5145 -9.2279v-41.84a4.5145 9.2279 0 0 1 4.5145 -9.2279" fill="#ffe200"/>
 <path transform="matrix(1.0252 .65194 -.97583 .68589 316.58 -22.804)" d="m325.55 392.59h50.489a4.5145 9.2279 0 0 1 4.5145 9.2279v41.84a4.5145 9.2279 0 0 1 -4.5145 9.2279h-50.489a4.5145 9.2279 0 0 1 -4.5145 -9.2279v-41.84a4.5145 9.2279 0 0 1 4.5145 -9.2279" fill="#ffe200"/>
 <path transform="matrix(1.0252 .65194 -.97583 .68589 316.58 -22.804)" d="m396.04 392.57h50.489a4.5145 9.2279 0 0 1 4.5145 9.2279v41.84a4.5145 9.2279 0 0 1 -4.5145 9.2279h-50.489a4.5145 9.2279 0 0 1 -4.5145 -9.2279v-41.84a4.5145 9.2279 0 0 1 4.5145 -9.2279" fill="#ffe200"/>
 <path transform="matrix(1.0252 .65194 -.97583 .68589 316.58 -22.804)" d="m256.03 318.62h50.489a4.5145 9.2279 0 0 1 4.5145 9.2279v41.84a4.5145 9.2279 0 0 1 -4.5145 9.2279h-50.489a4.5145 9.2279 0 0 1 -4.5145 -9.2279v-41.84a4.5145 9.2279 0 0 1 4.5145 -9.2279" fill="#ffe200"/>
 <path transform="matrix(1.0252 .65194 -.97583 .68589 316.58 -22.804)" d="m325.55 318.59h50.489a4.5145 9.2279 0 0 1 4.5145 9.2279v41.84a4.5145 9.2279 0 0 1 -4.5145 9.2279h-50.489a4.5145 9.2279 0 0 1 -4.5145 -9.2279v-41.84a4.5145 9.2279 0 0 1 4.5145 -9.2279" fill="#ffe200"/>
 <path transform="matrix(1.0252 .65194 -.97583 .68589 316.58 -22.804)" d="m397.55 318.6h50.489a4.5145 9.2279 0 0 1 4.5145 9.2279v41.84a4.5145 9.2279 0 0 1 -4.5145 9.2279h-50.489a4.5145 9.2279 0 0 1 -4.5145 -9.2279v-41.84a4.5145 9.2279 0 0 1 4.5145 -9.2279" fill="#ffe200"/>
 <path transform="matrix(1.0252 .65194 -.97583 .68589 316.58 -22.804)" d="m256.03 247.67h50.489a4.5145 9.2279 0 0 1 4.5145 9.2279v41.84a4.5145 9.2279 0 0 1 -4.5145 9.2279h-50.489a4.5145 9.2279 0 0 1 -4.5145 -9.2279v-41.84a4.5145 9.2279 0 0 1 4.5145 -9.2279" fill="#ffe200"/>
 <path transform="matrix(1.0252 .65194 -.97583 .68589 316.58 -22.804)" d="m326.55 246.6h50.489a4.5145 9.2279 0 0 1 4.5145 9.2279v41.84a4.5145 9.2279 0 0 1 -4.5145 9.2279h-50.489a4.5145 9.2279 0 0 1 -4.5145 -9.2279v-41.84a4.5145 9.2279 0 0 1 4.5145 -9.2279" fill="#ffe200"/>
 <path transform="matrix(1.0252 .65194 -.97583 .68589 316.58 -22.804)" d="m397.55 247.6h50.489a4.5145 9.2279 0 0 1 4.5145 9.2279v41.84a4.5145 9.2279 0 0 1 -4.5145 9.2279h-50.489a4.5145 9.2279 0 0 1 -4.5145 -9.2279v-41.84a4.5145 9.2279 0 0 1 4.5145 -9.2279" fill="#ffe200"/>
</svg>
