<?xml version="1.0" encoding="UTF-8"?>
<svg version="1.1" viewBox="0 0 422.78 442.11" xmlns="http://www.w3.org/2000/svg" xmlns:xlink="http://www.w3.org/1999/xlink">
 <defs>
  <linearGradient id="y">
   <stop stop-color="#800000" offset="0"/>
   <stop stop-color="#ff4614" offset=".61238"/>
   <stop stop-color="#d40000" offset="1"/>
  </linearGradient>
  <linearGradient id="x">
   <stop stop-color="#1d6a1d" offset="0"/>
   <stop stop-color="#2edd2e" offset=".61238"/>
   <stop stop-color="#1dbd1d" offset="1"/>
  </linearGradient>
  <linearGradient id="w">
   <stop stop-color="#e06700" offset="0"/>
   <stop stop-color="#ecde39" offset=".61238"/>
   <stop stop-color="#faa900" offset="1"/>
  </linearGradient>
  <linearGradient id="a" x1="111.83" x2="158" y1="353.77" y2="354.18" gradientUnits="userSpaceOnUse" xlink:href="#y"/>
  <linearGradient id="z" x1="111.83" x2="158" y1="353.77" y2="354.18" gradientTransform="matrix(.98532 0 0 .98532 211.62 -189.64)" gradientUnits="userSpaceOnUse" xlink:href="#y"/>
  <linearGradient id="aa" x1="111.83" x2="158" y1="353.77" y2="354.18" gradientTransform="translate(19.377 190.44)" gradientUnits="userSpaceOnUse" xlink:href="#w"/>
  <linearGradient id="ab" x1="111.83" x2="158" y1="353.77" y2="354.18" gradientTransform="matrix(1.0236 0 0 1.0236 63.77 203.15)" gradientUnits="userSpaceOnUse" xlink:href="#w"/>
  <linearGradient id="ac" x1="111.83" x2="158" y1="353.77" y2="354.18" gradientTransform="matrix(1.0236 0 0 1.0236 121.18 186.74)" gradientUnits="userSpaceOnUse" xlink:href="#w"/>
  <linearGradient id="ad" x1="111.83" x2="158" y1="353.77" y2="354.18" gradientTransform="matrix(.98532 0 0 .98532 183.42 184.53)" gradientUnits="userSpaceOnUse" xlink:href="#w"/>
  <linearGradient id="ae" x1="111.83" x2="158" y1="353.77" y2="354.18" gradientTransform="matrix(.98532 0 0 .98532 239.74 167.03)" gradientUnits="userSpaceOnUse" xlink:href="#w"/>
  <linearGradient id="af" x1="111.83" x2="158" y1="353.77" y2="354.18" gradientTransform="translate(77.339 174.58)" gradientUnits="userSpaceOnUse" xlink:href="#w"/>
  <linearGradient id="ag" x1="111.83" x2="158" y1="353.77" y2="354.18" gradientTransform="matrix(.98099 0 0 .98099 136.87 165.77)" gradientUnits="userSpaceOnUse" xlink:href="#w"/>
  <linearGradient id="ah" x1="111.83" x2="158" y1="353.77" y2="354.18" gradientTransform="matrix(.98099 0 0 .98099 193.74 149.37)" gradientUnits="userSpaceOnUse" xlink:href="#w"/>
  <linearGradient id="ai" x1="111.83" x2="158" y1="353.77" y2="354.18" gradientTransform="translate(160.65 -136.03)" gradientUnits="userSpaceOnUse" xlink:href="#x"/>
  <linearGradient id="aj" x1="111.83" x2="158" y1="353.77" y2="354.18" gradientTransform="matrix(1.0236 0 0 1.0236 205.05 -123.33)" gradientUnits="userSpaceOnUse" xlink:href="#x"/>
  <linearGradient id="ak" x1="111.83" x2="158" y1="353.77" y2="354.18" gradientTransform="matrix(1.0236 0 0 1.0236 262.46 -139.73)" gradientUnits="userSpaceOnUse" xlink:href="#x"/>
  <linearGradient id="al" x1="111.83" x2="158" y1="353.77" y2="354.18" gradientTransform="matrix(.98532 0 0 .98532 324.7 -141.94)" gradientUnits="userSpaceOnUse" xlink:href="#x"/>
  <linearGradient id="am" x1="111.83" x2="158" y1="353.77" y2="354.18" gradientTransform="matrix(.98532 0 0 .98532 381.02 -159.44)" gradientUnits="userSpaceOnUse" xlink:href="#x"/>
  <linearGradient id="an" x1="111.83" x2="158" y1="353.77" y2="354.18" gradientTransform="translate(218.62 -151.89)" gradientUnits="userSpaceOnUse" xlink:href="#x"/>
  <linearGradient id="ao" x1="111.83" x2="158" y1="353.77" y2="354.18" gradientTransform="matrix(.98099 0 0 .98099 278.15 -160.7)" gradientUnits="userSpaceOnUse" xlink:href="#x"/>
  <linearGradient id="ap" x1="111.83" x2="158" y1="353.77" y2="354.18" gradientTransform="matrix(.98099 0 0 .98099 335.02 -177.1)" gradientUnits="userSpaceOnUse" xlink:href="#x"/>
  <linearGradient id="aq" x1="414.18" x2="459.81" y1="422.04" y2="422.04" gradientUnits="userSpaceOnUse">
   <stop stop-color="#1516a2" offset="0"/>
   <stop stop-color="#5859e9" offset=".61238"/>
   <stop stop-color="#2223e2" offset="1"/>
  </linearGradient>
 </defs>
 <g transform="translate(-69.766 -305.21)">
  <path d="m105.09 633.26 1.0196 80.212 92.467 33.552-2.3352-80.351z" fill="#e02400" stroke="#000" stroke-linecap="round" stroke-linejoin="round" stroke-width=".6"/>
  <path d="m197.6 746.08 231.56-63.302-0.2262-80.764-232.69 64.653z" fill="#ff401c" stroke="#000" stroke-linecap="round" stroke-linejoin="round" stroke-width=".6"/>
  <path d="m105.37 633.24 219.35-60.373 103.93 29.107-233.08 64.701z" fill="#a00" stroke="#000" stroke-linecap="round" stroke-linejoin="round" stroke-width=".6"/>
  <g transform="translate(29.612 433.11)" stroke="#000">
   <g transform="translate(-8.7489 -166.23)" stroke-width=".25">
    <path d="m111.63 347.86 0.10374 17.532s8.0893 5.1871 22.719 5.1871c16.599 0 23.238-6.5357 23.238-6.5357l-0.20749-16.495z" fill="url(#a)"/>
    <path d="m157.5 347.49c0 2.9974-10.268 5.4272-22.935 5.4272s-22.935-2.4299-22.935-5.4272 10.268-5.4272 22.935-5.4272c12.502 0 22.7 2.3693 22.931 5.3272l-0.1184 0.29339z" fill="#a00"/>
   </g>
   <g transform="matrix(1.0236 0 0 1.0236 35.643 -153.52)" stroke-width=".25">
    <path d="m111.63 347.86 0.10374 17.532s8.0893 5.1871 22.719 5.1871c16.599 0 23.238-6.5357 23.238-6.5357l-0.20749-16.495z" fill="url(#a)"/>
    <path d="m157.5 347.49c0 2.9974-10.268 5.4272-22.935 5.4272s-22.935-2.4299-22.935-5.4272 10.268-5.4272 22.935-5.4272c12.502 0 22.7 2.3693 22.931 5.3272l-0.1184 0.29339z" fill="#a00"/>
   </g>
   <g transform="matrix(1.0236 0 0 1.0236 93.058 -169.93)" stroke-width=".25">
    <path d="m111.63 347.86 0.10374 17.532s8.0893 5.1871 22.719 5.1871c16.599 0 23.238-6.5357 23.238-6.5357l-0.20749-16.495z" fill="url(#a)"/>
    <path d="m157.5 347.49c0 2.9974-10.268 5.4272-22.935 5.4272s-22.935-2.4299-22.935-5.4272 10.268-5.4272 22.935-5.4272c12.502 0 22.7 2.3693 22.931 5.3272l-0.1184 0.29339z" fill="#a00"/>
   </g>
   <g transform="matrix(.98532 0 0 .98532 155.29 -172.14)" stroke-width=".25">
    <path d="m111.63 347.86 0.10374 17.532s8.0893 5.1871 22.719 5.1871c16.599 0 23.238-6.5357 23.238-6.5357l-0.20749-16.495z" fill="url(#a)"/>
    <path d="m157.5 347.49c0 2.9974-10.268 5.4272-22.935 5.4272s-22.935-2.4299-22.935-5.4272 10.268-5.4272 22.935-5.4272c12.502 0 22.7 2.3693 22.931 5.3272l-0.1184 0.29339z" fill="#a00"/>
   </g>
   <path d="m321.6 153.11 0.10222 17.275s7.9706 5.1109 22.386 5.1109c16.355 0 22.897-6.4397 22.897-6.4397l-0.20444-16.253z" fill="url(#z)" stroke-width=".24633"/>
   <path d="m366.8 152.75c0 2.9534-10.117 5.3476-22.598 5.3476-12.48 0-22.598-2.3942-22.598-5.3476s10.117-5.3476 22.598-5.3476c12.318 0 22.367 2.3345 22.594 5.249l-0.11666 0.28908z" fill="#a00" stroke-width=".24633"/>
   <g transform="translate(49.213 -182.09)" stroke-width=".25">
    <path d="m111.63 347.86 0.10374 17.532s8.0893 5.1871 22.719 5.1871c16.599 0 23.238-6.5357 23.238-6.5357l-0.20749-16.495z" fill="url(#a)"/>
    <path d="m157.5 347.49c0 2.9974-10.268 5.4272-22.935 5.4272s-22.935-2.4299-22.935-5.4272 10.268-5.4272 22.935-5.4272c12.502 0 22.7 2.3693 22.931 5.3272l-0.1184 0.29339z" fill="#a00"/>
   </g>
   <g transform="matrix(.98099 0 0 .98099 108.75 -190.9)" stroke-width=".25">
    <path d="m111.63 347.86 0.10374 17.532s8.0893 5.1871 22.719 5.1871c16.599 0 23.238-6.5357 23.238-6.5357l-0.20749-16.495z" fill="url(#a)"/>
    <path d="m157.5 347.49c0 2.9974-10.268 5.4272-22.935 5.4272s-22.935-2.4299-22.935-5.4272 10.268-5.4272 22.935-5.4272c12.502 0 22.7 2.3693 22.931 5.3272l-0.1184 0.29339z" fill="#a00"/>
   </g>
   <g transform="matrix(.98099 0 0 .98099 165.61 -207.3)" stroke-width=".25">
    <path d="m111.63 347.86 0.10374 17.532s8.0893 5.1871 22.719 5.1871c16.599 0 23.238-6.5357 23.238-6.5357l-0.20749-16.495z" fill="url(#a)"/>
    <path d="m157.5 347.49c0 2.9974-10.268 5.4272-22.935 5.4272s-22.935-2.4299-22.935-5.4272 10.268-5.4272 22.935-5.4272c12.502 0 22.7 2.3693 22.931 5.3272l-0.1184 0.29339z" fill="#a00"/>
   </g>
  </g>
  <path d="m102.97 554.58 0.70074 79.256 91.512 33.241-0.74269-79.084z" fill="#faa900" stroke="#000" stroke-linecap="round" stroke-linejoin="round" stroke-width=".6"/>
  <path d="m196.12 666.78 231.55-63.403-0.63781-80.724-232.27 67.574z" fill="#fcd200" stroke="#000" stroke-linecap="round" stroke-linejoin="round" stroke-width=".6"/>
  <path d="m103.24 554.24 220.63-61.011 102.8 29.423-232.59 67.574z" fill="#faa900" stroke="#000" stroke-linecap="round" stroke-linejoin="round" stroke-width=".6"/>
  <path d="m235.45 542.81 0.10619 17.946s8.2804 5.3096 23.256 5.3096c16.991 0 23.787-6.69 23.787-6.69l-0.21239-16.884z" fill="url(#ac)" stroke="#000" stroke-width=".2559"/>
  <path d="m282.4 542.44c0 3.0682-10.511 5.5554-23.476 5.5554s-23.476-2.4872-23.476-5.5554 10.511-5.5554 23.476-5.5554c12.797 0 23.236 2.4252 23.472 5.453l-0.1212 0.30032z" fill="#faa900" stroke="#000" stroke-width=".2559"/>
  <path d="m293.41 527.28 0.10222 17.275s7.9706 5.1109 22.386 5.1109c16.355 0 22.897-6.4397 22.897-6.4397l-0.20444-16.253z" fill="url(#ad)" stroke="#000" stroke-width=".24633"/>
  <path d="m338.61 526.92c0 2.9534-10.117 5.3476-22.598 5.3476-12.48 0-22.598-2.3942-22.598-5.3476s10.117-5.3476 22.598-5.3476c12.318 0 22.367 2.3345 22.594 5.249l-0.11666 0.28908z" fill="#faa900" stroke="#000" stroke-width=".24633"/>
  <path d="m349.73 509.78 0.10222 17.275s7.9706 5.1109 22.386 5.1109c16.355 0 22.897-6.4397 22.897-6.4397l-0.20444-16.253z" fill="url(#ae)" stroke="#000" stroke-width=".24633"/>
  <path d="m394.93 509.42c0 2.9534-10.117 5.3476-22.598 5.3476-12.48 0-22.598-2.3942-22.598-5.3476s10.117-5.3476 22.598-5.3476c12.318 0 22.367 2.3345 22.594 5.249l-0.11666 0.28908z" fill="#faa900" stroke="#000" stroke-width=".24633"/>
  <path d="m188.96 522.44 0.10374 17.532s8.0893 5.1871 22.719 5.1871c16.599 0 23.238-6.5357 23.238-6.5357l-0.20749-16.495z" fill="url(#af)" stroke="#000" stroke-width=".25"/>
  <path d="m234.84 522.08c0 2.9974-10.268 5.4272-22.935 5.4272s-22.935-2.4299-22.935-5.4272 10.268-5.4272 22.935-5.4272c12.502 0 22.7 2.3693 22.931 5.3272l-0.1184 0.29339z" fill="#faa900" stroke="#000" stroke-width=".25"/>
  <path d="m246.38 507.02 0.10177 17.199s7.9356 5.0884 22.287 5.0884c16.283 0 22.796-6.4114 22.796-6.4114l-0.20354-16.181z" fill="url(#ag)" stroke="#000" stroke-width=".24525"/>
  <path d="m291.38 506.66c0 2.9404-10.073 5.3241-22.499 5.3241s-22.499-2.3837-22.499-5.3241 10.073-5.3241 22.499-5.3241c12.264 0 22.269 2.3243 22.495 5.2259l-0.11615 0.28781z" fill="#faa900" stroke="#000" stroke-width=".24525"/>
  <path d="m303.24 490.61 0.10177 17.199s7.9356 5.0884 22.287 5.0884c16.283 0 22.796-6.4114 22.796-6.4114l-0.20354-16.181z" fill="url(#ah)" stroke="#000" stroke-width=".24525"/>
  <path d="m348.25 490.26c0 2.9404-10.073 5.3241-22.499 5.3241s-22.499-2.3837-22.499-5.3241 10.073-5.3241 22.499-5.3241c12.264 0 22.269 2.3243 22.495 5.2259l-0.11615 0.28781z" fill="#faa900" stroke="#000" stroke-width=".24525"/>
  <path d="m168.18 458.03 1.0196 80.212 92.467 33.552-2.3352-80.351z" fill="#1b1cce" stroke="#000" stroke-linecap="round" stroke-linejoin="round" stroke-width=".6"/>
  <path d="m260.69 570.86 231.56-63.302-0.2262-80.764l-232.69 64.653z" fill="#3334e4" stroke="#000" stroke-linecap="round" stroke-linejoin="round" stroke-width=".6"/>
  <path d="m168.46 458.01 219.35-60.373 103.93 29.107-233.08 64.701z" fill="#1b1cce" stroke="#000" stroke-linecap="round" stroke-linejoin="round" stroke-width=".6"/>
  <g transform="matrix(1.0236 0 0 1.0236 185.76 87.96)" stroke="#000" stroke-width=".25">
   <path d="m111.63 347.86 0.10374 17.532s8.0893 5.1871 22.719 5.1871c16.599 0 23.238-6.5357 23.238-6.5357l-0.20749-16.495z" fill="url(#a)"/>
   <path d="m157.5 347.49c0 2.9974-10.268 5.4272-22.935 5.4272s-22.935-2.4299-22.935-5.4272 10.268-5.4272 22.935-5.4272c12.502 0 22.7 2.3693 22.931 5.3272l-0.1184 0.29339z" fill="#a00"/>
  </g>
  <g transform="matrix(.98532 0 0 .98532 247.99 85.75)" stroke="#000" stroke-width=".25">
   <path d="m111.63 347.86 0.10374 17.532s8.0893 5.1871 22.719 5.1871c16.599 0 23.238-6.5357 23.238-6.5357l-0.20749-16.495z" fill="url(#a)"/>
   <path d="m157.5 347.49c0 2.9974-10.268 5.4272-22.935 5.4272s-22.935-2.4299-22.935-5.4272 10.268-5.4272 22.935-5.4272c12.502 0 22.7 2.3693 22.931 5.3272l-0.1184 0.29339z" fill="#a00"/>
  </g>
  <path d="m414.3 411 0.10222 17.275s7.9706 5.1109 22.386 5.1109c16.355 0 22.897-6.4397 22.897-6.4397l-0.20444-16.253z" fill="url(#aq)" stroke="#000" stroke-width=".24633"/>
  <path d="m459.5 410.64c0 2.9534-10.117 5.3476-22.598 5.3476-12.48 0-22.598-2.3942-22.598-5.3476s10.117-5.3476 22.598-5.3476c12.318 0 22.367 2.3345 22.594 5.249l-0.11666 0.28908z" fill="#1b1cce" stroke="#000" stroke-width=".24633"/>
  <g transform="translate(141.91 75.803)" stroke="#000" stroke-width=".25">
   <path d="m111.63 347.86 0.10374 17.532s8.0893 5.1871 22.719 5.1871c16.599 0 23.238-6.5357 23.238-6.5357l-0.20749-16.495z" fill="url(#a)"/>
   <path d="m157.5 347.49c0 2.9974-10.268 5.4272-22.935 5.4272s-22.935-2.4299-22.935-5.4272 10.268-5.4272 22.935-5.4272c12.502 0 22.7 2.3693 22.931 5.3272l-0.1184 0.29339z" fill="#a00"/>
  </g>
  <g transform="matrix(.98099 0 0 .98099 201.45 66.993)" stroke="#000" stroke-width=".25">
   <path d="m111.63 347.86 0.10374 17.532s8.0893 5.1871 22.719 5.1871c16.599 0 23.238-6.5357 23.238-6.5357l-0.20749-16.495z" fill="url(#a)"/>
   <path d="m157.5 347.49c0 2.9974-10.268 5.4272-22.935 5.4272s-22.935-2.4299-22.935-5.4272 10.268-5.4272 22.935-5.4272c12.502 0 22.7 2.3693 22.931 5.3272l-0.1184 0.29339z" fill="#a00"/>
  </g>
  <g transform="matrix(.98099 0 0 .98099 258.31 50.589)" stroke="#000" stroke-width=".25">
   <path d="m111.63 347.86 0.10374 17.532s8.0893 5.1871 22.719 5.1871c16.599 0 23.238-6.5357 23.238-6.5357l-0.20749-16.495z" fill="url(#a)"/>
   <path d="m157.5 347.49c0 2.9974-10.268 5.4272-22.935 5.4272s-22.935-2.4299-22.935-5.4272 10.268-5.4272 22.935-5.4272c12.502 0 22.7 2.3693 22.931 5.3272l-0.1184 0.29339z" fill="#a00"/>
  </g>
  <g transform="translate(83.95 91.66)" stroke="#000" stroke-width=".25">
   <path d="m111.63 347.86 0.10374 17.532s8.0893 5.1871 22.719 5.1871c16.599 0 23.238-6.5357 23.238-6.5357l-0.20749-16.495z" fill="url(#a)"/>
   <path d="m157.5 347.49c0 2.9974-10.268 5.4272-22.935 5.4272s-22.935-2.4299-22.935-5.4272 10.268-5.4272 22.935-5.4272c12.502 0 22.7 2.3693 22.931 5.3272l-0.1184 0.29339z" fill="#a00"/>
  </g>
  <g transform="matrix(1.0236 0 0 1.0236 128.34 104.36)" stroke="#000" stroke-width=".25">
   <path d="m111.63 347.86 0.10374 17.532s8.0893 5.1871 22.719 5.1871c16.599 0 23.238-6.5357 23.238-6.5357l-0.20749-16.495z" fill="url(#a)"/>
   <path d="m157.5 347.49c0 2.9974-10.268 5.4272-22.935 5.4272s-22.935-2.4299-22.935-5.4272 10.268-5.4272 22.935-5.4272c12.502 0 22.7 2.3693 22.931 5.3272l-0.1184 0.29339z" fill="#a00"/>
  </g>
  <g transform="translate(-65.418 18.231)" stroke="#000">
   <path d="m167.12 377.22 1.0196 80.212 92.467 33.552-2.3352-80.351z" fill="#209720" stroke-linecap="round" stroke-linejoin="round" stroke-width=".6"/>
   <path d="m259.63 490.05 231.56-63.302-0.2262-80.764-232.69 64.653z" fill="#1fc91f" stroke-linecap="round" stroke-linejoin="round" stroke-width=".6"/>
   <path d="m167.4 377.2 219.35-60.373 103.93 29.107-233.08 64.701z" fill="#1d8a1d" stroke-linecap="round" stroke-linejoin="round" stroke-width=".6"/>
   <g transform="translate(-77.762 146.88)">
    <path d="m272.28 211.83 0.10374 17.532s8.0893 5.1871 22.719 5.1871c16.599 0 23.238-6.5357 23.238-6.5357l-0.20749-16.495z" fill="url(#ai)" stroke-width=".25"/>
    <path d="m318.15 211.46c0 2.9974-10.268 5.4272-22.935 5.4272s-22.935-2.4299-22.935-5.4272 10.268-5.4272 22.935-5.4272c12.502 0 22.7 2.3693 22.931 5.3272l-0.1184 0.29339z" fill="#1d8a1d" stroke-width=".25"/>
    <path d="m319.31 232.74 0.10619 17.946s8.2804 5.3096 23.256 5.3096c16.991 0 23.787-6.69 23.787-6.69l-0.21239-16.884z" fill="url(#aj)" stroke-width=".2559"/>
    <path d="m366.27 232.37c0 3.0682-10.511 5.5554-23.476 5.5554s-23.476-2.4872-23.476-5.5554 10.511-5.5554 23.476-5.5554c12.797 0 23.236 2.4252 23.472 5.453l-0.1212 0.30032z" fill="#1d8a1d" stroke-width=".2559"/>
    <path d="m376.72 216.34 0.10619 17.946s8.2804 5.3096 23.256 5.3096c16.991 0 23.787-6.69 23.787-6.69l-0.21239-16.884z" fill="url(#ak)" stroke-width=".2559"/>
    <path d="m423.68 215.97c0 3.0682-10.511 5.5554-23.476 5.5554s-23.476-2.4872-23.476-5.5554 10.511-5.5554 23.476-5.5554c12.797 0 23.236 2.4252 23.472 5.453l-0.1212 0.30032z" fill="#1d8a1d" stroke-width=".2559"/>
    <path d="m434.68 200.81 0.10222 17.275s7.9706 5.1109 22.386 5.1109c16.355 0 22.897-6.4397 22.897-6.4397l-0.20444-16.253z" fill="url(#al)" stroke-width=".24633"/>
    <path d="m479.89 200.45c0 2.9534-10.117 5.3476-22.598 5.3476-12.48 0-22.598-2.3942-22.598-5.3476s10.117-5.3476 22.598-5.3476c12.318 0 22.367 2.3345 22.594 5.249l-0.11666 0.28908z" fill="#1d8a1d" stroke-width=".24633"/>
    <path d="m491 183.31 0.10222 17.275s7.9706 5.1109 22.386 5.1109c16.355 0 22.897-6.4397 22.897-6.4397l-0.20444-16.253z" fill="url(#am)" stroke-width=".24633"/>
    <path d="m536.21 182.95c0 2.9534-10.117 5.3476-22.598 5.3476-12.48 0-22.598-2.3942-22.598-5.3476s10.117-5.3476 22.598-5.3476c12.318 0 22.367 2.3345 22.594 5.249l-0.11666 0.28908z" fill="#1d8a1d" stroke-width=".24633"/>
    <path d="m330.24 195.97 0.10374 17.532s8.0893 5.1871 22.719 5.1871c16.599 0 23.238-6.5357 23.238-6.5357l-0.20749-16.495z" fill="url(#an)" stroke-width=".25"/>
    <path d="m376.12 195.6c0 2.9974-10.268 5.4272-22.935 5.4272s-22.935-2.4299-22.935-5.4272 10.268-5.4272 22.935-5.4272c12.502 0 22.7 2.3693 22.931 5.3272l-0.1184 0.29339z" fill="#1d8a1d" stroke-width=".25"/>
    <path d="m387.65 180.55 0.10177 17.199s7.9356 5.0884 22.287 5.0884c16.283 0 22.796-6.4114 22.796-6.4114l-0.20354-16.181z" fill="url(#ao)" stroke-width=".24525"/>
    <path d="m432.66 180.19c0 2.9404-10.073 5.3241-22.499 5.3241s-22.499-2.3837-22.499-5.3241 10.073-5.3241 22.499-5.3241c12.264 0 22.269 2.3243 22.495 5.2259l-0.11615 0.28781z" fill="#1d8a1d" stroke-width=".24525"/>
    <path d="m444.52 164.14 0.10177 17.199s7.9356 5.0884 22.287 5.0884c16.283 0 22.796-6.4114 22.796-6.4114l-0.20354-16.181z" fill="url(#ap)" stroke-width=".24525"/>
    <path d="m489.52 163.78c0 2.9404-10.073 5.3241-22.499 5.3241s-22.499-2.3837-22.499-5.3241 10.073-5.3241 22.499-5.3241c12.264 0 22.269 2.3243 22.495 5.2259l-0.11615 0.28781z" fill="#1d8a1d" stroke-width=".24525"/>
   </g>
  </g>
  <path d="m131 538.3 0.10374 17.532s8.0893 5.1871 22.719 5.1871c16.599 0 23.238-6.5357 23.238-6.5357l-0.20749-16.495z" fill="url(#aa)" stroke="#000" stroke-width=".25"/>
  <path d="m176.88 537.93c0 2.9974-10.268 5.4272-22.935 5.4272s-22.935-2.4299-22.935-5.4272 10.268-5.4272 22.935-5.4272c12.502 0 22.7 2.3693 22.931 5.3272l-0.1184 0.29339z" fill="#faa900" stroke="#000" stroke-width=".25"/>
  <path d="m178.03 559.22 0.10619 17.946s8.2804 5.3096 23.256 5.3096c16.991 0 23.787-6.69 23.787-6.69l-0.21239-16.884z" fill="url(#ab)" stroke="#000" stroke-width=".2559"/>
  <path d="m224.99 558.84c0 3.0682-10.511 5.5554-23.476 5.5554s-23.476-2.4872-23.476-5.5554 10.511-5.5554 23.476-5.5554c12.797 0 23.236 2.4252 23.472 5.453l-0.1212 0.30032z" fill="#faa900" stroke="#000" stroke-width=".2559"/>
  <text x="241.64827" y="621.84668" fill="#000000" font-family="'MP Serif'" font-size="18px" letter-spacing="0px" stroke-width="1px" word-spacing="0px" style="line-height:125%" xml:space="preserve"><tspan x="241.64827" y="621.84668"/></text>
 </g>
</svg>
